<svg aria-hidden="true" style="position:absolute;width:0;height:0;overflow:hidden" xmlns="http://www.w3.org/2000/svg"><defs><symbol id="icon-company-two" viewBox="0 0 32 32"><path fill="#afb1b8" style="fill:var(--color1, #afb1b8)" d="M15.13 8.73h-.78.02c-1.1.07-2.18.34-3.18.82l-.13.06v6.68l.3-.1c.99-.35 2.12-.56 3.3-.58v.88l-.32.01h-.02c-1.53.08-2.93.5-4.18 1.19l.06-.03V9.08c.67-.4 1.46-.72 2.29-.94h.06a8.78 8.78 0 0 1 2.2-.3h.14c.55 0 1.08.08 1.6.21h-.05v.86a6.5 6.5 0 0 0-1.05-.16h-.04l-.22-.02zm1.52.89a9.14 9.14 0 0 0 2.99-.3l-.07.02a9.6 9.6 0 0 0 2.29-.9l-.05.03v8.42c-.68.4-1.46.73-2.29.94l-.06.02c-.73.18-1.47.28-2.22.28h-.05c-.58 0-1.14-.07-1.67-.21h.04V9.46c.32.08.69.14 1.07.17h.02zm4.29.07-.3.1a10.14 10.14 0 0 1-3.98.56h.03l-.25-.01v6.87l.2.02a8.06 8.06 0 0 0 2.66-.25l-.06.01c.6-.15 1.12-.34 1.61-.58l-.05.02.13-.06V9.7zM10.79 20.6a.45.45 0 0 0-.32-.14h-.02a.55.55 0 0 0-.2.03.45.45 0 0 0-.28.45v1.14c0 .08 0 .16.04.23.03.06.07.12.12.16.04.04.1.06.15.08s.12.02.17.02c.27 0 .48-.22.48-.48v-.13h-.3v.1a.2.2 0 0 1-.02.1.19.19 0 0 1-.04.07.2.2 0 0 1-.12.04h-.02a.15.15 0 0 1-.13-.06.27.27 0 0 1-.04-.14v-1.08c0-.06.01-.12.04-.17a.15.15 0 0 1 .15-.07c.05 0 .1.03.13.07.03.04.05.09.05.14v.1h.3v-.11a.54.54 0 0 0-.14-.36zm1.78-.02a.53.53 0 0 0-.53-.1.46.46 0 0 0-.27.26.51.51 0 0 0-.04.22v1.1c0 .08.01.15.04.22.03.06.07.12.12.16l.16.1c.05.02.11.03.18.03s.12-.01.18-.04a.47.47 0 0 0 .31-.44V20.94a.5.5 0 0 0-.15-.36zm-.14 1.48v.02a.2.2 0 0 1-.06.14.22.22 0 0 1-.28 0 .2.2 0 0 1-.06-.16v-1.12c0-.05.02-.1.06-.14a.22.22 0 0 1 .28 0 .2.2 0 0 1 .06.15v1.11zm2.47.5v-2.1h-.29l-.37 1.11-.39-1.1h-.28v2.08h.3v-1.27l.29.9h.15l.3-.9v1.27h.3zm1.7-1.94a.39.39 0 0 0-.18-.12.65.65 0 0 0-.2-.03h-.45v2.08h.3v-.81h.14c.1 0 .19-.02.27-.06a.5.5 0 0 0 .23-.34 1.4 1.4 0 0 0-.01-.54v.01a.44.44 0 0 0-.1-.2zm-.16.63c0 .04-.01.08-.03.1-.02.04-.04.07-.07.08a.3.3 0 0 1-.14.03h-.14v-.7h.15c.05 0 .1 0 .14.02.03.01.05.04.07.07s.02.08.02.12v.28zm1.55-.78h-.24l-.45 2.08h.3l.08-.45h.4l.1.45h.29L18 20.47zm-.27 1.35.15-.76.15.76h-.3zm2.19-.1-.45-1.25h-.29v2.08h.3V21.3l.45 1.25h.28v-2.08h-.3v1.25zm1.81-1.25-.24.83-.24-.83h-.31l.4 1.2v.88h.3v-.88l.4-1.2h-.3zM9.96 23.14h.14v.4h.1v-.4h.14v-.08h-.38v.08zm1.2-.09-.18.49h.1l.04-.11h.2l.03.1h.1l-.18-.48h-.1zm-.01.3.06-.18.07.18h-.13zm1.2.01h.11v.06a.18.18 0 0 1-.11.04h-.01a.12.12 0 0 1-.1-.04.2.2 0 0 1-.03-.12v-.01c0-.1.04-.16.14-.16a.1.1 0 0 1 .1.08l.1-.02c-.02-.1-.09-.14-.2-.14h-.01a.24.24 0 0 0-.16.06.24.24 0 0 0-.07.19c0 .06.02.13.06.18.04.04.1.07.17.07h.01a.3.3 0 0 0 .2-.08v-.19h-.2v.08zm1.21-.3h-.1v.48h.34v-.08h-.24v-.4zm1.03 0h-.1v.48h.1v-.48zm1 .32-.2-.32h-.1v.48h.1v-.32l.19.32h.1v-.48h-.1v.32zm.9-.05h.25v-.08h-.24v-.11h.25v-.08h-.35v.48h.36v-.08h-.27v-.13zm2.2-.08h-.19v-.2h-.1v.49h.1v-.21h.19v.2h.1v-.48h-.1v.2zm.91.08h.24v-.08h-.24v-.11h.26v-.08h-.35v.48h.36v-.08h-.27v-.13zm1.24 0c.08-.02.12-.06.12-.14v-.01a.11.11 0 0 0-.04-.1.27.27 0 0 0-.14-.02h-.2v.48h.09v-.2h.08l.03.04.1.16H21l-.06-.1a.3.3 0 0 0-.1-.12zm-.1-.07h-.07v-.12h.17l.03.06c0 .02-.01.04-.03.05a.27.27 0 0 1-.08.01h-.02zm1.03.07H22v-.08h-.24v-.11h.26v-.08h-.36v.48h.37v-.08h-.27v-.13z"/></symbol><symbol id="icon-company-three" viewBox="0 0 32 32"><path fill="#afb1b8" style="fill:var(--color1, #afb1b8)" d="M10.99 21.77h.03l.06.07a.6.6 0 0 1-.18.12.72.72 0 0 1-.26.04.77.77 0 0 1-.25-.04.5.5 0 0 1-.3-.28c-.04-.07-.05-.15-.05-.23s.01-.16.04-.23a.54.54 0 0 1 .33-.28.77.77 0 0 1 .5 0c.05.02.12.05.17.1l-.06.06-.01.01-.02.01h-.03l-.03-.03-.04-.02a.46.46 0 0 0-.2-.05h-.03l-.18.03a.4.4 0 0 0-.23.22.43.43 0 0 0-.04.18l.03.18c.05.1.13.18.23.22l.17.03h.1a.4.4 0 0 0 .22-.1l.03-.01zm1.9-.32c0 .08-.01.15-.04.22a.54.54 0 0 1-.32.29.8.8 0 0 1-.5 0 .52.52 0 0 1-.32-.29.57.57 0 0 1 0-.45.53.53 0 0 1 .12-.17.65.65 0 0 1 .45-.15c.09 0 .18.01.26.04h-.01c.07.03.14.06.2.11.1.1.16.23.16.38v.02zm-.17 0-.03-.18a.37.37 0 0 0-.22-.22.58.58 0 0 0-.37 0 .4.4 0 0 0-.14.09.37.37 0 0 0-.1.13.57.57 0 0 0 0 .36c.05.1.13.18.23.22.13.03.26.03.37 0a.4.4 0 0 0 .23-.22.55.55 0 0 0 .03-.18zm1.47.19.02.04.01-.04.03-.04.42-.67.02-.02a.1.1 0 0 1 .04 0h.12v1.08h-.15v-.86l-.42.67-.02.02-.04.01h-.06a.07.07 0 0 1-.02-.03l-.44-.68V22h-.14v-1.08h.16l.02.02.43.67.02.04zm1.58-.05v.4h-.16v-1.08h.36c.07 0 .14 0 .2.02s.11.04.15.07l.09.1.03.14a.3.3 0 0 1-.12.25.37.37 0 0 1-.15.07.69.69 0 0 1-.2.03h-.2zm0-.12h.2c.04 0 .09 0 .13-.02a.27.27 0 0 0 .1-.05h-.01a.2.2 0 0 0 .08-.16v-.01l-.02-.08a.21.21 0 0 0-.06-.07.36.36 0 0 0-.22-.06h-.2v.45zm2.21.52h-.13l-.03-.01-.02-.02-.12-.27h-.56l-.11.27c-.01.02-.04.03-.06.03h-.13l.5-1.08h.17l.5 1.08zm-.81-.4h.46l-.2-.44a.65.65 0 0 1-.03-.1l-.02.05-.02.05-.2.44zm1.53-.68.02.02.72.82v-.84h.15v1.08h-.12a.08.08 0 0 1-.02-.03l-.72-.81v.84h-.15v-1.08h.12zm2.1.65V22h-.16v-.43l-.46-.65h.19l.02.03.28.42.05.1.02-.05.03-.04.28-.43.02-.02.04-.01h.15l-.46.65zm-6.7-2.46.22.01a6.07 6.07 0 0 0 2.7-2.01v-.02c.6-.8.97-1.8.97-2.9v-.09l-1.23-1.06a5.4 5.4 0 0 1-.34 3.36 6.37 6.37 0 0 1-2.29 2.7h-.02z"/><path fill="#afb1b8" style="fill:var(--color1, #afb1b8)" d="M13.67 19.05h.03a6.12 6.12 0 0 0 2.45-2.78 5.15 5.15 0 0 0 .22-3.54v.04l-1.74-1.52a6.42 6.42 0 0 1 .82 4.05v-.03a6.85 6.85 0 0 1-1.79 3.78zm5.91-3.7a5.47 5.47 0 0 1-2.03 2.97l-.02.01c-.3.23-.63.43-.97.6a6 6 0 0 0 2.26-1.1 5.05 5.05 0 0 0 1.46-1.84v-.04l-.7-.6z"/><path fill="#afb1b8" style="fill:var(--color1, #afb1b8)" d="m19.3 15.17-1-.87a5.04 5.04 0 0 1-.96 2.83l.01-.01a6.2 6.2 0 0 1-2.42 2l-.04.01c.23 0 .46 0 .68-.03a6.25 6.25 0 0 0 2.44-1.55 5.11 5.11 0 0 0 1.29-2.34v-.04zm-5.48-4.56-1.2-1.04a5.7 5.7 0 0 0-2.65 1.8v.02a4.5 4.5 0 0 0-1.01 2.8 4.56 4.56 0 0 0 1.22 3.05c.8.86 1.87 1.49 3.07 1.74h.04a6.56 6.56 0 0 0 1.84-4.08v-.39c0-1.47-.49-2.83-1.33-3.91l.01.01zm8.26 4.4c0-1.31-.6-2.56-1.67-3.5a6.14 6.14 0 0 0-3.98-1.45h-.05c-.7 0-1.38.12-2.04.34l7.36 6.38c.24-.52.38-1.13.38-1.77z"/></symbol><symbol id="icon-company-four" viewBox="0 0 32 32"><path fill="#2196f3" style="fill:var(--color2, #2196f3)" d="M7.3 13.31c-.73 0-1.32.53-1.32 1.17 0 .64.59 1.16 1.3 1.16.73 0 1.32-.52 1.32-1.16 0-.64-.59-1.17-1.3-1.17zm9.67-.37c0-.9-.4-1.75-1.12-2.38a4.04 4.04 0 0 0-2.65-.99h-.03c-1 0-1.97.36-2.68.99a3.2 3.2 0 0 0-1.12 2.38v4.93s7.6-.75 7.6-4.93zM3.32 19.5c0 .62.28 1.21.78 1.65.49.43 1.14.7 1.84.7h.02c.7 0 1.37-.26 1.86-.7.47-.4.77-1 .78-1.65v-3.43s-5.28.52-5.28 3.43zm2.64.61a.72.72 0 0 1-.38-.1.65.65 0 0 1-.26-.27.55.55 0 0 1-.04-.37c.03-.11.1-.22.2-.3a.7.7 0 0 1 .34-.18c.14-.02.28 0 .4.04s.24.12.32.22a.56.56 0 0 1-.09.78.72.72 0 0 1-.5.18zm5.34-.34h-.51v.53h-.27V19h.84v.21h-.57v.34h.5v.21zm1.27-.09c0 .13-.02.24-.07.34a.5.5 0 0 1-.46.3h-.03a.51.51 0 0 1-.47-.3.75.75 0 0 1-.07-.3v-.09c0-.13.03-.24.07-.33.09-.18.26-.3.47-.3h.01c.11 0 .2.02.29.07.08.06.15.13.2.23.04.1.06.2.06.33v.06zm-.27-.06a.54.54 0 0 0-.07-.3.24.24 0 0 0-.2-.1c-.1 0-.17.03-.21.1s-.08.17-.08.3v.06c0 .14.03.24.08.3s.12.12.2.12c.1 0 .16-.03.2-.1s.08-.18.08-.31v-.06zm1.13.34c0-.05-.02-.09-.05-.11a.66.66 0 0 0-.19-.09 1.2 1.2 0 0 1-.22-.09c-.15-.08-.22-.18-.22-.31 0-.08.02-.14.06-.2s.1-.09.17-.12a.64.64 0 0 1 .5 0c.06.03.12.08.16.15.04.06.06.13.06.2h-.27c0-.06-.02-.1-.05-.14a.23.23 0 0 0-.15-.05h-.02c-.05 0-.1.02-.14.05a.13.13 0 0 0-.05.1c0 .05.02.08.06.11.04.03.1.05.19.08.15.04.26.1.33.17.06.06.1.15.1.25 0 .11-.04.2-.13.26s-.2.1-.34.1a.67.67 0 0 1-.27-.06.38.38 0 0 1-.25-.36h.27c0 .14.08.2.25.2.06 0 .11 0 .15-.03a.14.14 0 0 0 .05-.1zm1.42-.73h-.4v1.07h-.26v-1.07h-.4V19h1.06v.22zm.92.5h-.5v.36h.6v.2H15V19h.86v.21h-.6v.31h.51v.21zm.73.1h-.21v.47h-.27V19h.48c.15 0 .27.03.35.1.08.07.12.17.12.3 0 .08-.02.15-.05.21-.04.06-.1.1-.18.14l.28.53v.01h-.28l-.24-.47zm-.21-.22h.2c.07 0 .13-.01.16-.05s.06-.07.06-.13c0-.07-.02-.12-.05-.15-.04-.04-.1-.05-.16-.05h-.21v.38zm1.6.23v.46h-.26V19h.5c.1 0 .18.02.26.05.07.04.13.09.16.16.04.06.06.13.06.22 0 .12-.04.22-.13.3-.08.07-.2.1-.35.1h-.24zm0-.2h.24c.07 0 .12-.02.16-.06.04-.03.06-.08.06-.14 0-.06-.03-.11-.06-.15a.2.2 0 0 0-.15-.06h-.25v.4zm1.68.1h-.5v.35h.59v.2h-.86V19h.86v.21h-.6v.31h.51v.21zm1.23-.51h-.4v1.07h-.26v-1.07h-.39V19h1.05v.22zm.93.51h-.51v.35h.6v.2h-.87V19h.86v.21h-.59v.31h.51v.21zm.72.09h-.21v.47h-.27V19h.48c.15 0 .27.03.35.1.09.07.13.17.13.3 0 .08-.02.15-.06.21-.04.06-.1.1-.17.14l.28.53v.01h-.29l-.24-.47zm-.21-.22h.21c.07 0 .12-.01.16-.05a.18.18 0 0 0 .05-.13c0-.07-.02-.12-.05-.15-.03-.04-.09-.05-.16-.05h-.2v.38zm1.56.35c0-.05-.02-.09-.06-.11a.65.65 0 0 0-.18-.09c-.1-.03-.17-.06-.22-.09-.15-.08-.22-.18-.22-.31a.3.3 0 0 1 .06-.2c.03-.05.1-.09.16-.12a.66.66 0 0 1 .5 0c.07.03.13.08.17.15.03.06.06.13.06.2h-.27c0-.06-.02-.1-.05-.14a.23.23 0 0 0-.15-.05h-.03c-.05 0-.1.02-.13.05a.13.13 0 0 0-.06.1c0 .05.02.08.06.11l.2.08c.14.04.25.1.32.17s.1.15.1.25c0 .11-.04.2-.12.26s-.2.1-.34.1h-.01a.66.66 0 0 1-.27-.06.38.38 0 0 1-.24-.36h.26c0 .14.09.2.26.2.06 0 .11 0 .15-.03a.14.14 0 0 0 .05-.1z"/></symbol><symbol id="icon-company-five" viewBox="0 0 32 32"><path fill="#afb1b8" style="fill:var(--color1, #afb1b8)" d="M8.08 20.45c.07.08.11.19.1.3.01.06 0 .13-.03.2a.49.49 0 0 1-.13.17.82.82 0 0 1-.5.13h-.88v-1.87h.91c.16 0 .3.05.43.13a.43.43 0 0 1 .16.35c0 .1-.03.2-.1.28a.47.47 0 0 1-.26.15.5.5 0 0 1 .3.16zm-1.03-.28h.36c.09 0 .17-.02.24-.06a.18.18 0 0 0 .06-.09.19.19 0 0 0 .02-.1v-.02c0-.03 0-.05-.02-.08a.23.23 0 0 0-.06-.08.38.38 0 0 0-.2-.06H7.04v.49zm.64.71a.24.24 0 0 0 .09-.2c0 .01 0 0 0 0l-.03-.1a.24.24 0 0 0-.07-.08.4.4 0 0 0-.22-.07H7.05v.52h.4c.08 0 .16-.02.23-.07zm2.14.37-.47-.73h-.18v.73h-.41v-1.87H9.6c.19 0 .35.06.5.16h-.01a.56.56 0 0 1 .06.77c-.1.1-.23.17-.37.2l.5.74h-.44zm-.66-.98h.34c.23 0 .35-.1.35-.29 0-.04 0-.08-.02-.11a.27.27 0 0 0-.07-.1.38.38 0 0 0-.23-.07h-.37v.57zm2.9.6h-.8l-.15.38h-.44l.76-1.85h.46l.75 1.85h-.43l-.14-.38zm-.1-.28-.3-.79-.3.8h.6zm2.92.66h-.4l-.92-1.27v1.27h-.4v-1.87h.4l.91 1.28v-1.28h.41v1.87zm2.33-.45a.85.85 0 0 1-.37.34c-.18.08-.38.12-.58.11h-.72v-1.87h.72c.2 0 .4.04.58.12.16.07.28.18.37.32a1 1 0 0 1 0 .99zm-.47-.04a.65.65 0 0 0 0-.9.75.75 0 0 0-.46-.15h-.33v1.2h.28c.19.02.37-.04.51-.15zM12.34 9s5.26 1.81 5.15 4.45v4.45s-5.26-1.82-5.15-4.45V8.99zm9.84 7.86c.95-.6 2.09-1 3.31-1.13h.03v-1.4a6.8 6.8 0 0 0-3.33 2.5l-.01.03z"/><path fill="#afb1b8" style="fill:var(--color1, #afb1b8)" d="M21.58 17.27a7.01 7.01 0 0 1 3.9-3.22l.04-.01V10s-7.5 2.6-7.34 6.35v6.34s.33-.11.86-.33c0-.2 0-.4.03-.61a6.43 6.43 0 0 1 2.5-4.48z"/><path fill="#afb1b8" style="fill:var(--color1, #afb1b8)" d="M20.87 19.63c.03-.44.12-.88.26-1.3a5.84 5.84 0 0 0-1.59 3.82v.01c.43-.19.92-.42 1.44-.7a6.07 6.07 0 0 1-.11-1.83zm.3.02c-.06.56-.02 1.12.09 1.66 2.05-1.12 4.35-2.85 4.26-4.95v-.18a7 7 0 0 0-3.9 1.67c-.23.52-.4 1.13-.45 1.78v.02z"/></symbol><symbol id="icon-company-six" viewBox="0 0 32 32"><path fill="#afb1b8" style="fill:var(--color1, #afb1b8)" d="M16.13 15.21a.88.88 0 0 1-.18-.6v-.86c0-.27.06-.47.18-.61s.33-.21.62-.2c.28 0 .48.05.6.17.12.15.18.33.17.52v.2h-.5v-.2l-.01-.2a.2.2 0 0 0-.07-.12.28.28 0 0 0-.16-.05h-.04a.3.3 0 0 0-.17.05.23.23 0 0 0-.09.13l-.01.21v1.06c-.01.1.01.2.06.3.02.03.06.06.1.07a.26.26 0 0 0 .13.02h.02c.06 0 .11-.02.15-.05a.2.2 0 0 0 .08-.13l.01-.21v-.22h.5v.2a.8.8 0 0 1-.17.54c-.12.13-.31.2-.6.2-.28 0-.5-.07-.62-.21zm2.06.02c-.13-.14-.19-.34-.19-.6v-.91c0-.26.06-.46.2-.6.12-.13.32-.2.62-.19.29 0 .5.06.62.2.13.13.2.33.2.59v.91c0 .26-.07.46-.2.6-.13.13-.33.2-.62.2s-.5-.07-.63-.2zm.86-.22a.51.51 0 0 0 .06-.28v-1.12a.5.5 0 0 0-.06-.26.23.23 0 0 0-.1-.07.26.26 0 0 0-.1-.02h-.07c-.03 0-.06 0-.1.02a.23.23 0 0 0-.1.07.55.55 0 0 0-.06.26v1.13c0 .1.02.19.06.27a.35.35 0 0 0 .37.07.33.33 0 0 0 .1-.07zm1.18-2.05h.53l.4 1.69.41-1.7h.52l.05 2.45h-.38l-.04-1.7-.4 1.7h-.3l-.42-1.7-.04 1.7h-.39l.05-2.44zm2.51 0h.83c.48 0 .72.23.72.7 0 .43-.25.65-.76.65h-.28v1.09h-.51v-2.44zm.71 1.04.15-.01c.05-.01.1-.04.13-.07a.4.4 0 0 0 .08-.27c0-.08 0-.15-.03-.22a.2.2 0 0 0-.04-.07.22.22 0 0 0-.06-.05.54.54 0 0 0-.23-.04h-.2V14h.2zm1.58-1.04h.55l.57 2.44h-.48l-.12-.57h-.49l-.11.57h-.49l.57-2.44zm.47 1.6-.2-1.03-.18 1.02h.38zm1.1-1.6h.36l.69 1.39v-1.39h.42v2.44h-.34l-.69-1.45v1.45h-.44v-2.44zm2.47 1.5-.57-1.5h.48l.35.97.32-.97h.48l-.57 1.5v.94h-.5v-.93zm-12.15 2v.13h-.42v1h-.17v-1h-.43v-.13h1.02zm1.31 1.12h-.13l-.04-.01a.07.07 0 0 1-.02-.02l-.13-.27h-.58l-.12.27-.01.03H17.02l.51-1.11h.18l.52 1.11zm-.85-.41h.49l-.2-.46a.77.77 0 0 1-.04-.1l-.03.05-.01.05-.2.45zm1.73.3h.1a.6.6 0 0 0 .16-.03l.06-.03v-.25h-.2l-.03-.01v-.11h.4v.43c-.1.06-.22.1-.35.11l-.15.01a.84.84 0 0 1-.26-.04.65.65 0 0 1-.2-.12.53.53 0 0 1-.14-.17.57.57 0 0 1-.05-.23V17c0-.16.07-.3.19-.4.05-.05.12-.09.2-.11a.85.85 0 0 1 .42-.03.7.7 0 0 1 .23.07l.08.06-.05.07-.02.01h-.05a.63.63 0 0 0-.33-.1h-.02a.6.6 0 0 0-.2.04h.01a.41.41 0 0 0-.15.09.4.4 0 0 0-.1.13.53.53 0 0 0 0 .38.44.44 0 0 0 .46.25zm1.64-.02h.56v.13h-.73v-1.11h.17v.98zm1.14.13h-.17v-1.11h.17v1.11zm.66-1.11.02.02.75.84v-.87h.15v1.12h-.12a.1.1 0 0 1-.03-.02l-.75-.85v.87h-.15v-1.11h.12zm2.22 0v.11h-.63v.37h.5v.12h-.5v.38h.63v.13h-.8v-1.12h.8zM6.39 9.55l7.79 1.9v6.7l-7.8-1.91v-6.7zm-.5-.58v7.6l8.79 2.15v-7.6L5.88 9z"/><path fill="#afb1b8" style="fill:var(--color1, #afb1b8)" d="M10.6 22.25 1.8 20.09V12.5l8.79 2.15v7.58zM6.04 9.47l7.68 1.89-3.27 2.82-7.68-1.89 3.27-2.82zm-.15-.48L1.81 12.5l8.79 2.15 4.07-3.52L5.9 8.99zm5.2 12.83 3.58-3.1-3.58-.87v3.97z"/></symbol><symbol id="icon-company-one" viewBox="0 0 32 32"><path fill="#afb1b8" style="fill:var(--color1, #afb1b8)" d="m11.47 9.06 2.11 2H9.66v9.71h10.26v-3.71l2.12 2v-10H11.47zm8.36 7.76-6-5.67h6v5.67zm-1.86 2.53h-6.69v-6.53h.48v6.09h6.2v.44zm-5.1 2.72-.25.5-.25-.5h-.2l.35.68v.39h.19v-.4l.36-.67h-.21zm.3 1.07.09-.25h.42l.09.25h.19l-.4-1.07h-.17l-.41 1.07h.2zm.3-.85.15.45h-.3l.15-.45zm.98.43a.24.24 0 0 0-.04.13c0 .1.03.17.1.22.06.06.15.09.25.09s.2-.03.28-.09l.06.07h.2l-.15-.19c.06-.08.09-.19.09-.32h-.15c0 .07-.02.14-.05.2l-.2-.25.07-.05c.05-.04.09-.08.1-.12a.23.23 0 0 0-.04-.3v.01a.27.27 0 0 0-.18-.07h-.02a.28.28 0 0 0-.2.08.26.26 0 0 0-.07.18v.02c0 .03 0 .07.02.1l.1.14a.65.65 0 0 0-.17.15zm.48.23a.27.27 0 0 1-.17.06.17.17 0 0 1-.12-.04.16.16 0 0 1-.05-.12c0-.06.03-.11.1-.16l.01-.02.23.28zm-.19-.47c-.05-.06-.07-.12-.07-.16 0-.03 0-.06.03-.09a.1.1 0 0 1 .08-.03c.03 0 .06 0 .08.03.02.01.03.04.03.07 0 .04-.01.07-.04.1l-.02.02-.09.05zm1.75.58a.38.38 0 0 0 .13-.27h-.19c0 .08-.03.13-.07.17-.04.03-.09.04-.16.04h-.01a.21.21 0 0 1-.17-.09.47.47 0 0 1-.07-.26v-.1c0-.11.02-.2.07-.26.04-.06.1-.09.19-.09.06 0 .12.02.15.05s.06.1.07.17h.19a.4.4 0 0 0-.13-.27.41.41 0 0 0-.26-.1h-.03c-.09 0-.16.02-.23.06a.41.41 0 0 0-.15.18.62.62 0 0 0-.05.27v.1c0 .1.01.18.05.26s.08.13.15.17c.07.04.14.06.23.06.12 0 .22-.03.29-.1zm1.1-.15a.67.67 0 0 0 .05-.28v-.06c0-.1-.02-.2-.06-.27a.41.41 0 0 0-.37-.25h-.02c-.08 0-.16.02-.23.07s-.12.1-.15.18a.67.67 0 0 0-.06.28v.06c0 .1.02.19.06.27s.09.14.15.18c.07.04.15.06.24.06s.16-.02.23-.06c.07-.04.12-.1.16-.18zm-.2-.6c.04.05.06.15.06.27v.05c0 .12-.02.21-.06.28-.04.05-.1.1-.18.1h-.02a.22.22 0 0 1-.18-.1.46.46 0 0 1-.07-.25v-.09c0-.12.02-.2.07-.27.04-.06.1-.1.17-.1h.02c.08 0 .14.04.19.1z"/></symbol><symbol id="icon-twitter" viewBox="0 0 32 32"><path fill="#afb1b8" style="fill:var(--color1, #afb1b8)" d="M32 6.08c-1.18.53-2.46.86-3.78 1.04a6.46 6.46 0 0 0 2.88-3.63 13.95 13.95 0 0 1-4.16 1.6 6.54 6.54 0 0 0-11.37 4.45c0 .54.06 1.06.18 1.56v-.04A18.55 18.55 0 0 1 2.26 4.23l-.03-.04a6.6 6.6 0 0 0 1.98 8.75l.02.02a6.3 6.3 0 0 1-2.96-.8v.06c0 3.2 2.27 5.84 5.26 6.45a6.41 6.41 0 0 1-3.01.1l.04.01a6.64 6.64 0 0 0 6.13 4.56h.01a13.1 13.1 0 0 1-9.77 2.73H0a18.29 18.29 0 0 0 10 2.95h.07c12.08 0 18.67-10 18.67-18.67 0-.29 0-.58-.03-.85A13.1 13.1 0 0 0 32 6.1z"/></symbol><symbol id="icon-facebook" viewBox="0 0 32 32"><path fill="#afb1b8" style="fill:var(--color1, #afb1b8)" d="M21.33 5.31h2.93V.22C23.74.16 22.02 0 20 0c-4.22 0-7.1 2.66-7.1 7.52V12H8.26v5.68h4.64V32h5.7V17.7h4.46l.7-5.7h-5.17V8.08c0-1.65.45-2.77 2.74-2.77z"/></symbol><symbol id="icon-instagram" viewBox="0 0 32 32"><path fill="#afb1b8" style="fill:var(--color1, #afb1b8)" d="M31.97 9.4c-.03-1.4-.3-2.73-.76-3.96l.02.08a7.86 7.86 0 0 0-1.85-2.83A7.95 7.95 0 0 0 26.54.85 11.48 11.48 0 0 0 22.67.1h-.01a104.86 104.86 0 0 0-6.69-.1h.1c-4.36 0-4.9.02-6.6.1C7.76.16 6.6.45 5.58.83A8 8 0 0 0 2.75 2.7 8 8 0 0 0 .9 5.52 11.47 11.47 0 0 0 .16 9.4a104.86 104.86 0 0 0-.1 6.69V16c0 4.35 0 4.9.08 6.6.03 1.4.3 2.73.78 3.96l-.02-.08a7.78 7.78 0 0 0 1.85 2.83 8 8 0 0 0 2.83 1.86c1.01.38 2.18.65 3.88.73 1.7.08 2.24.1 6.59.1s4.9-.02 6.6-.1c1.4-.02 2.73-.29 3.96-.76l-.08.03a8.24 8.24 0 0 0 4.67-4.64l.02-.05c.38-1.02.67-2.18.73-3.89.08-1.7.1-2.24.1-6.59 0-4.34 0-4.88-.08-6.6zm-2.88 13.08a8.54 8.54 0 0 1-.55 2.96 5.34 5.34 0 0 1-3 3.03l-.04.01c-.56.22-1.42.48-2.97.54-1.68.08-2.2.1-6.47.1a106.97 106.97 0 0 1-6.7-.1h.24a8.45 8.45 0 0 1-2.96-.54 4.96 4.96 0 0 1-1.84-1.2c-.52-.5-.93-1.1-1.19-1.79l-.01-.03a8.64 8.64 0 0 1-.54-2.98 108.65 108.65 0 0 1-.1-6.55v.09c0-4.28.02-4.79.1-6.47.06-1.57.32-2.4.54-2.97.26-.7.66-1.32 1.2-1.83.5-.52 1.12-.93 1.8-1.19h.04c.56-.23 1.4-.49 2.98-.55 1.68-.08 2.19-.1 6.44-.1 4.3 0 4.8 0 6.47.1 1.57.06 2.4.32 2.97.54.7.26 1.33.66 1.84 1.2.53.51.95 1.14 1.2 1.83.21.57.48 1.42.55 2.97.08 1.68.1 2.2.1 6.47s-.02 4.76-.1 6.46z"/><path fill="#afb1b8" style="fill:var(--color1, #afb1b8)" d="M16.06 7.78a8.22 8.22 0 1 0 0 16.44 8.22 8.22 0 1 0 0-16.44zm0 13.55a5.33 5.33 0 1 1 0-10.66 5.33 5.33 0 1 1 0 10.66zM26.53 7.46a1.92 1.92 0 0 1-3.84 0 1.92 1.92 0 0 1 3.84 0z"/></symbol><symbol id="icon-linkedin" viewBox="0 0 32 32"><path fill="#afb1b8" style="fill:var(--color1, #afb1b8)" d="M32 32V20.26c0-5.73-1.23-10.16-7.95-10.16h-.26a6.96 6.96 0 0 0-6 3.42l-.01.03h-.1v-2.91H11.3V32h6.64V21.42c0-2.78.53-5.49 3.97-5.49 3.4 0 3.45 3.19 3.45 5.67V32H32zM.53 10.64h6.64V32H.53V10.64zM3.84 0A3.84 3.84 0 0 0 0 3.84v.02a3.87 3.87 0 0 0 3.84 3.87 3.87 3.87 0 0 0 0-7.73z"/></symbol><symbol id="icon-vector" viewBox="0 0 32 32"><path fill="#757575" style="fill:var(--color3, #757575)" d="M23 0H9a3 3 0 0 0-3 3v26a3 3 0 0 0 3 3h14a3 3 0 0 0 3-3V3a3 3 0 0 0-3-3zM9 2h14c.56 0 1 .44 1 1v21H8V3c0-.56.44-1 1-1zm14 28H9a1 1 0 0 1-1-1v-3h16v3a1 1 0 0 1-1 1z"/></symbol><symbol id="icon-envelope" viewBox="0 0 32 32"><path fill="#757575" style="fill:var(--color3, #757575)" d="M29 4H3a3 3 0 0 0-3 3v18a3 3 0 0 0 3 3h26a3 3 0 0 0 3-3V7a3 3 0 0 0-3-3zm0 2c.15 0 .28.03.4.08L16 17.68 2.6 6.08A.98.98 0 0 1 3 6h26zm0 20H3a1 1 0 0 1-1-1V8.2l13.34 11.56a1 1 0 0 0 1.32 0L30 8.2V25a1 1 0 0 1-1 1z"/></symbol><symbol id="icon-antenna" viewBox="0 0 32 32"><path  d="m30.77 22.1-8.44-8.5.94-4.62c.24.09.5.14.76.14h.03a2.16 2.16 0 1 0-2.03-1.42V7.7l-4.96.6L8.97.16A.54.54 0 0 0 8.6 0a.52.52 0 0 0-.37.15L6.7 1.65a.53.53 0 0 0 0 .76l.82.82a14.9 14.9 0 0 0 2.52 17.66c.04.05.09.08.14.1-.03.2-.05.38-.05.56v6.18h-6.4a2.67 2.67 0 0 0-2.67 2.67v1.06c0 .3.24.54.54.54h24.53c.3 0 .53-.24.53-.54V30.4c0-1.47-1.2-2.67-2.66-2.67h-6.4V25a14.79 14.79 0 0 0 10.17-1.5l-.08.04.81.82c.1.1.24.16.38.16s.27-.06.37-.15l1.51-1.51a.53.53 0 0 0 0-.75zm-7.5-15.87A1.06 1.06 0 0 1 25.1 7c0 .59-.47 1.06-1.06 1.06a1.07 1.07 0 0 1-.75-1.82zm-1.25 3.5-.6 2.95-1.17-1.18 1.77-1.76zm-.6-.9-1.92 1.91L18 9.25l3.4-.41zM24 28.8c.89 0 1.6.72 1.6 1.6v.54H2.14v-.54c0-.88.72-1.6 1.6-1.6H24zm-7.46-2.14v1.07H11.2v-1.07h5.34zM11.2 25.6v-4.05c0-1.3 1.2-2.35 2.67-2.35s2.66 1.05 2.66 2.35v4.05H11.2zm6.4-1.7v-2.35c0-1.88-1.67-3.41-3.73-3.41h-.07a3.8 3.8 0 0 0-3.2 1.76l-.02.02A13.81 13.81 0 0 1 8.34 3.96l-.03.07 18.6 18.71a13.64 13.64 0 0 1-9.4 1.15l.1.01zm11.3-.68-.76-.76L7.84 2.04l.75-.75 21.06 21.18-.76.75z"/><path fill="#2196f3" style="fill:var(--color2, #2196f3)" d="M13.87 20.27a1.6 1.6 0 0 0 0 3.2 1.6 1.6 0 0 0 0-3.2zm.38 1.98a.53.53 0 0 1-.91-.38c0-.3.23-.54.53-.54a.54.54 0 0 1 .37.91z"/></symbol><symbol id="icon-clock" viewBox="0 0 32 32"><path fill="#212121" style="fill:var(--color4, #212121)" d="M31.3 15.3a15.3 15.3 0 1 0-20.07 14.55l.1.03a.68.68 0 0 0 .54-.06c.14-.08.23-.2.28-.36l3.86-12.25a1.91 1.91 0 1 0-.85-3.63h.01l-5.1-5.1a.64.64 0 0 0-.9.9l5.1 5.1a1.87 1.87 0 0 0 .53 2.3v.01l-3.68 11.67a14.04 14.04 0 1 1 10.66-.38l-.09.03-.4-1.87a.64.64 0 0 0-1.05-.34l-3.83 3.42a.64.64 0 0 0 .22 1.08l4.9 1.57a.64.64 0 0 0 .82-.75l-.39-1.83a15.28 15.28 0 0 0 9.33-14.06v-.03zM16 14.66a.64.64 0 0 1 0 1.28.64.64 0 0 1 0-1.28zm2.1 14.87 2.18-1.95.6 2.84-2.8-.9z"/><path fill="#2196f3" style="fill:var(--color2, #2196f3)" d="M15.36 3.19v1.33a.64.64 0 1 0 1.27-.06V3.18a.64.64 0 0 0-1.28 0zM3.88 14.66a.64.64 0 0 0 0 1.28h1.27a.64.64 0 0 0 0-1.28H3.87zm24.23 1.28a.64.64 0 0 0 0-1.28h-1.28a.64.64 0 0 0 0 1.28h1.28z"/></symbol><symbol id="icon-diagram" viewBox="0 0 32 32"><path fill="#2196f3" style="fill:var(--color2, #2196f3)" d="M14.93 14.97h1.06v4.8h-1.06v-4.8zm4.26 2.13h1.07v2.66h-1.07V17.1zm-8.53 1.6h1.07v1.06h-1.07V18.7zm-3.2-.54h1.07v1.6H7.46v-1.6z"/><path fill="#212121" style="fill:var(--color4, #212121)" d="M1.6 28.3h25.59c.88 0 1.6-.72 1.6-1.6v-2.14c0-.89-.72-1.6-1.6-1.6h-.54V9.67l3.03-2.87a1.6 1.6 0 1 0-.75-.75v-.01L26.65 8.2V6.97c0-.88-.71-1.6-1.6-1.6H3.73c-.88 0-1.6.72-1.6 1.6v16H1.6c-.88 0-1.6.71-1.6 1.6v2.12c0 .89.72 1.6 1.6 1.6zM30.39 4.83h.04a.53.53 0 1 1-.05 1.06.54.54 0 0 1 0-1.06zM3.2 6.97c0-.3.24-.53.53-.53h21.32c.3 0 .54.23.54.53V9.2l-1.07 1.01V8.04c0-.3-.24-.54-.53-.54H4.8c-.3 0-.53.24-.53.54v13.32c0 .3.24.53.53.53H24c.29 0 .53-.23.53-.53V11.7l1.06-1.01v12.28H3.2v-16zM8 13.9h-.01a1.6 1.6 0 1 0 1.11 2.74l1.86.94c.21.1.47.05.63-.13l3.94-4.43 3.87 2.9c.21.16.5.14.69-.03l3.37-3.2v8.14H5.33V8.56h18.13v2.66l-3.78 3.57-3.9-2.92a.54.54 0 0 0-.72.07l-4 4.5-1.49-.75.03-.2c0-.88-.72-1.6-1.6-1.6zm.53 1.6a.53.53 0 1 1-1.07 0 .53.53 0 1 1 1.07 0zm3.2 8.53h5.32v.53c0 .3-.24.53-.53.53h-4.26a.54.54 0 0 1-.54-.53v-.53zm-10.67.53c0-.3.24-.53.54-.53h9.06v.53c0 .88.71 1.6 1.6 1.6h4.26c.89 0 1.6-.72 1.6-1.6v-.53h9.06c.3 0 .53.24.53.53v2.13c0 .3-.23.53-.53.53H1.6a.53.53 0 0 1-.53-.53v-2.13z"/></symbol><symbol id="icon-astronaut" viewBox="0 0 32 32"><path fill="#2196f3" style="fill:var(--color2, #2196f3)" d="M31.97 4.53a.54.54 0 0 0-.43-.37l-1.9-.27-.86-1.74c-.18-.36-.78-.36-.96 0l-.85 1.74-1.9.27a.54.54 0 0 0-.3.92l1.38 1.34-.33 1.9v.09a.53.53 0 0 0 .78.47l1.7-.9 1.71.9a.53.53 0 0 0 .78-.57v.01l-.33-1.9 1.39-1.35c.14-.14.2-.35.13-.55zm-2.46 1.32a.53.53 0 0 0-.15.47l.19 1.12-1-.53a.52.52 0 0 0-.5 0l-1 .53.2-1.12a.53.53 0 0 0-.16-.47l-.81-.79 1.12-.16a.54.54 0 0 0 .4-.3l.5-1 .5 1c.08.16.23.27.4.3l1.12.16-.8.8zm-3.38 14.68h-1.06v1.06h1.07v-1.07zm0 2.13h-1.06v1.06h1.07v-1.06zm1.07-1.07h-1.06v1.07h1.06v-1.07zm-2.13 0H24v1.07h1.06v-1.07zm-2.67 4.8h-1.06v1.07h1.06v-1.07zm0 2.14h-1.06v1.06h1.06v-1.07zm1.07-1.07H22.4v1.06h1.06v-1.06zm-2.13 0h-1.07v1.06h1.07v-1.06zM16 24.26h-1.06v1.06H16v-1.06zm0 2.13h-1.06v1.07H16v-1.07zm1.07-1.06H16v1.06h1.06v-1.07zm-2.13 0h-1.07v1.06h1.07v-1.07zM5.87 6.13H4.8v1.06h1.07V6.12zm0 2.13H4.8v1.06h1.07V8.26zm1.06-1.07H5.86v1.07h1.07V7.19zm-2.13 0H3.74v1.07H4.8V7.19z"/><path fill="#212121" style="fill:var(--color4, #212121)" d="M24.71 14.16c-.28-.38-.7-.64-1.18-.7a1.77 1.77 0 0 0-1.34.35l-1.25.96-1.9 1.41-1.36-.54A6.93 6.93 0 0 0 14.83 2.4a6.95 6.95 0 0 0-5.84 10.7l-2.77-.03H6.2c-.06 0-.1.02-.16.03l-.03.02h-.03l-3.23 1.6-1.9.91a1.78 1.78 0 0 0 1.8 3.09h-.02l1.39-.73 2.26-1.17 1.36-.01-6.78 6.76a1.64 1.64 0 0 0 0 2.35 1.66 1.66 0 0 0 2.36 0l1.3-1.31 1.75-1.3.9.9-1.76 1.75-1.34 1.33a1.64 1.64 0 0 0 0 2.36 1.66 1.66 0 0 0 2.36 0l3.48-3.47 1.01-1 .02-.03 5.16-5.66 3.48.5h.06a.5.5 0 0 0 .2-.03l.05-.03.06-.02 3.21-2.13.03-.04.04-.02 1.27-1.2a1.78 1.78 0 0 0 .2-2.36h.01zm-22.58 3.6a.72.72 0 0 1-.78-1.2l1.32-.63.32.92.13.4-.99.52zm3.5-1.82-1.55.8-.26-.74-.18-.54 2.03-1-.04 1.48zm15.1-6.61a5.8 5.8 0 0 1-.6 2.56l-4.18-1.9a1.86 1.86 0 0 0-.78-1.39h-.01l1.46-4.86a5.87 5.87 0 0 1 4.1 5.59zm-11.8 0a5.89 5.89 0 0 1 6.68-5.82h-.03l-1.44 4.75h-.05c-1.03 0-1.87.83-1.87 1.86a1.87 1.87 0 0 0 3.48.93l3.87 1.75A5.9 5.9 0 0 1 8.93 9.33zm5.96.8a.8.8 0 1 1-1.61 0 .8.8 0 0 1 1.61 0zM2.47 25.15a.61.61 0 0 1-.86 0 .6.6 0 0 1 0-.85l.96-.96.86.85-.97.95zm3.21 3.73a.6.6 0 0 1-.85-.84l.96-.96.85.84-.96.96zm3.49-3.47L7.4 27.17l-.85-.85 1.76-1.75.1-.14.02-.04a.37.37 0 0 0 .02-.12l.02-.08-.02-.1-.02-.1a.7.7 0 0 0-.09-.14l-.03-.04-1.6-1.6-.06-.03c-.03-.03-.06-.05-.1-.06a.5.5 0 0 0-.08-.03.54.54 0 0 0-.1-.03l-.1.01-.1.02a.31.31 0 0 0-.1.05l-.06.02-1.77 1.33-.9-.9 2.4-2.39 4.36 4.3-.93.9zm6.81-7.02h-.07a.52.52 0 0 0-.35.14l-.05.03-4.7 5.15-4.32-4.25 2.83-2.83c.1-.1.16-.23.16-.37 0-.3-.24-.54-.53-.54l-2.23.01.03-1.6 3.1.02a6.93 6.93 0 0 0 6.31 1.97l-.04.01c.03.03.08.07.13.09l2.4.96.16.76.18.88-3-.42zm4.04.18-.3-1.55 1.44-1.08.38.5.56.75-2.08 1.38zm3.76-2.83-.84.79-.93-1.24.83-.64a.73.73 0 0 1 .55-.14.72.72 0 0 1 .4 1.23z"/><path fill="#212121" style="fill:var(--color4, #212121)" d="m13.6 18.55-2.14-2.14a.53.53 0 0 0-.75 0l-2.15 2.14a.53.53 0 0 0 0 .75l2.15 2.13a.53.53 0 0 0 .75 0l2.14-2.13a.53.53 0 0 0 0-.75zm-2.51 1.75-1.4-1.37 1.39-1.39 1.39 1.39-1.4 1.38zm6.08-15.23-.27 1.04c.08.01 1.74.45 1.74 2.15h1.07c0-2.02-1.67-2.97-2.54-3.19zm2.54 4.26h-1.07v1.06h1.07V9.32z"/></symbol></defs></svg>